<?xml version="1.0" encoding="utf-8"?>
<!-- Generator: Adobe Illustrator 25.4.1, SVG Export Plug-In . SVG Version: 6.00 Build 0)  -->
<svg version="1.1" id="Layer_1" xmlns="http://www.w3.org/2000/svg" xmlns:xlink="http://www.w3.org/1999/xlink" x="0px" y="0px"
	 viewBox="0 0 678.51 848.14" style="enable-background:new 0 0 678.51 848.14;" xml:space="preserve">
<style type="text/css">
	.st0{fill:#CD9A62;}
	.st1{fill:#875B31;}
	.st2{fill:#393939;}
</style>
<g>
	<g>
		<polygon class="st0" points="348.14,334.8 450.65,297.37 450.65,386.46 348.14,425.51 		"/>
		<polygon class="st0" points="232.21,293.71 232.21,386.86 336.35,425.51 336.35,335.2 		"/>
		<polygon class="st0" points="243.6,286.8 346.11,248.56 436.41,269.3 308.28,311.61 		"/>
		<polygon class="st1" points="318.85,316.49 413.63,282.73 436.41,291.27 341.91,326.25 		"/>
	</g>
	<g>
		<path class="st2" d="M198.45,515.94v-56.06h26.09c6.7,0,11.86,1.29,15.46,3.88c3.6,2.59,5.4,6.13,5.4,10.61
			c0,3.04-0.71,5.61-2.12,7.69s-3.31,3.68-5.69,4.8c-2.38,1.12-4.96,1.68-7.73,1.68l1.5-2.4c3.32,0,6.26,0.56,8.81,1.68
			c2.55,1.12,4.57,2.76,6.07,4.92c1.5,2.16,2.24,4.84,2.24,8.05c0,4.8-1.87,8.53-5.61,11.17c-3.74,2.64-9.29,3.96-16.66,3.96H198.45
			z M206.76,509.45h19.11c4.6,0,8.12-0.75,10.55-2.24c2.44-1.49,3.66-3.84,3.66-7.05c0-3.26-1.22-5.63-3.66-7.13
			c-2.44-1.49-5.96-2.24-10.55-2.24h-19.86v-6.49h17.78c4.21,0,7.48-0.75,9.81-2.24c2.33-1.49,3.49-3.74,3.49-6.73
			c0-2.99-1.16-5.23-3.49-6.73c-2.33-1.49-5.6-2.24-9.81-2.24h-17.04V509.45z"/>
		<path class="st2" d="M293.43,516.58c-4.43,0-8.55-0.72-12.34-2.16c-3.8-1.44-7.08-3.46-9.85-6.05c-2.77-2.59-4.93-5.62-6.48-9.09
			c-1.55-3.47-2.33-7.26-2.33-11.37c0-4.11,0.78-7.9,2.33-11.37c1.55-3.47,3.71-6.5,6.48-9.09c2.77-2.59,6.04-4.61,9.81-6.05
			c3.77-1.44,7.89-2.16,12.38-2.16c4.43,0,8.53,0.71,12.3,2.12c3.77,1.42,7.04,3.42,9.81,6.01c2.77,2.59,4.92,5.63,6.44,9.13
			c1.52,3.5,2.29,7.3,2.29,11.41c0,4.16-0.76,7.98-2.29,11.45c-1.52,3.47-3.67,6.5-6.44,9.09c-2.77,2.59-6.04,4.59-9.81,6.01
			C301.97,515.87,297.87,516.58,293.43,516.58z M293.35,509.45c3.27,0,6.27-0.53,9.02-1.6c2.74-1.07,5.12-2.58,7.15-4.52
			c2.02-1.95,3.6-4.23,4.74-6.85c1.13-2.61,1.7-5.47,1.7-8.57c0-3.1-0.57-5.94-1.7-8.53c-1.14-2.59-2.72-4.87-4.74-6.85
			c-2.02-1.97-4.4-3.5-7.15-4.56c-2.74-1.07-5.75-1.6-9.02-1.6c-3.21,0-6.19,0.53-8.93,1.6c-2.74,1.07-5.14,2.59-7.19,4.56
			c-2.05,1.98-3.64,4.26-4.78,6.85c-1.14,2.59-1.7,5.43-1.7,8.53c0,3.1,0.57,5.95,1.7,8.57c1.13,2.62,2.73,4.9,4.78,6.85
			c2.05,1.95,4.45,3.46,7.19,4.52C287.16,508.92,290.14,509.45,293.35,509.45z"/>
		<path class="st2" d="M333.07,515.94l24.18-31.79v6.17l-22.85-30.43h9.47l18.12,23.94l-3.74,0.08l18.03-24.02h9.06l-22.69,29.95
			v-5.77l24.18,31.87h-9.56l-19.28-25.55h3.66l-19.03,25.55H333.07z"/>
		<path class="st2" d="M464.88,516.82l-32.66-31.31c-1.94-1.87-3.46-3.54-4.57-5c-1.11-1.47-1.91-2.9-2.41-4.28
			c-0.5-1.39-0.75-2.8-0.75-4.24c0-2.51,0.65-4.71,1.95-6.61c1.3-1.89,3.13-3.36,5.48-4.41c2.35-1.04,5.11-1.56,8.27-1.56
			c2.94,0,5.48,0.47,7.64,1.4c2.16,0.94,3.84,2.27,5.03,4c1.19,1.74,1.79,3.83,1.79,6.29c0,2.14-0.54,4.11-1.62,5.93
			c-1.08,1.82-2.81,3.58-5.19,5.29c-2.38,1.71-5.6,3.55-9.64,5.53c-3.32,1.66-5.93,3.19-7.81,4.6c-1.88,1.42-3.23,2.82-4.03,4.2
			c-0.8,1.39-1.2,2.91-1.2,4.57c0,1.76,0.54,3.32,1.62,4.68c1.08,1.36,2.6,2.42,4.57,3.16c1.97,0.75,4.25,1.12,6.86,1.12
			c3.71,0,7.06-0.77,10.06-2.32c2.99-1.55,5.5-3.87,7.52-6.97c2.02-3.1,3.5-6.94,4.45-11.53l6.4,2c-1.11,5.39-3.01,9.96-5.69,13.69
			c-2.69,3.74-6,6.59-9.93,8.57c-3.93,1.98-8.37,2.96-13.3,2.96c-3.93,0-7.42-0.61-10.47-1.84c-3.05-1.23-5.46-2.94-7.23-5.13
			c-1.77-2.19-2.66-4.72-2.66-7.61c0-2.51,0.58-4.81,1.74-6.89c1.16-2.08,3.02-4.1,5.57-6.05c2.55-1.95,5.9-3.96,10.06-6.05
			c3.38-1.71,6.03-3.2,7.94-4.48c1.91-1.28,3.27-2.5,4.07-3.64c0.8-1.15,1.2-2.39,1.2-3.72c0-1.81-0.66-3.3-1.99-4.44
			c-1.33-1.15-3.24-1.72-5.73-1.72c-2.6,0-4.64,0.63-6.11,1.88c-1.47,1.25-2.2,2.9-2.2,4.92c0,1.01,0.18,1.99,0.54,2.92
			c0.36,0.93,1.02,1.98,1.99,3.12c0.97,1.15,2.37,2.6,4.2,4.36l30.75,29.47L464.88,516.82z"/>
	</g>
	<g>
		<path class="st2" d="M145.28,598.94v-56.06h25.87c6.64,0,11.75,1.29,15.32,3.88c3.57,2.59,5.36,6.13,5.36,10.61
			c0,3.04-0.7,5.61-2.1,7.69c-1.4,2.08-3.28,3.68-5.64,4.8c-2.36,1.12-4.92,1.68-7.66,1.68l1.48-2.4c3.3,0,6.21,0.56,8.73,1.68
			c2.53,1.12,4.53,2.76,6.01,4.92c1.48,2.16,2.22,4.84,2.22,8.05c0,4.8-1.85,8.53-5.56,11.17c-3.71,2.64-9.21,3.96-16.52,3.96
			H145.28z M153.52,592.45h18.95c4.56,0,8.05-0.75,10.46-2.24c2.42-1.49,3.62-3.84,3.62-7.05c0-3.26-1.21-5.63-3.62-7.13
			c-2.42-1.49-5.9-2.24-10.46-2.24h-19.69v-6.49h17.63c4.17,0,7.41-0.75,9.72-2.24c2.31-1.49,3.46-3.74,3.46-6.73
			c0-2.99-1.15-5.23-3.46-6.73c-2.31-1.49-5.55-2.24-9.72-2.24h-16.89V592.45z"/>
		<path class="st2" d="M213.41,598.94v-56.06h40.7v6.97h-32.46v42.12h33.61v6.97H213.41z M220.91,573.87v-6.81h29.66v6.81H220.91z"
			/>
		<path class="st2" d="M287.48,598.94v-21.46l1.89,4.97l-24.8-39.56h8.81l20.84,33.39h-4.78l20.93-33.39h8.16l-24.72,39.56
			l1.81-4.97v21.46H287.48z"/>
		<path class="st2" d="M356.18,599.58c-4.39,0-8.47-0.72-12.23-2.16c-3.76-1.44-7.02-3.46-9.76-6.05c-2.75-2.59-4.89-5.62-6.43-9.09
			c-1.54-3.47-2.31-7.26-2.31-11.37c0-4.11,0.77-7.9,2.31-11.37c1.54-3.47,3.68-6.5,6.43-9.09c2.75-2.59,5.99-4.61,9.72-6.05
			c3.73-1.44,7.83-2.16,12.27-2.16c4.39,0,8.46,0.71,12.19,2.12c3.73,1.42,6.97,3.42,9.72,6.01c2.75,2.59,4.87,5.63,6.39,9.13
			c1.51,3.5,2.27,7.3,2.27,11.41c0,4.16-0.76,7.98-2.27,11.45c-1.51,3.47-3.64,6.5-6.39,9.09c-2.75,2.59-5.99,4.59-9.72,6.01
			C364.64,598.87,360.58,599.58,356.18,599.58z M356.1,592.45c3.24,0,6.22-0.53,8.94-1.6c2.72-1.07,5.08-2.58,7.09-4.52
			c2-1.95,3.57-4.23,4.7-6.85c1.13-2.61,1.69-5.47,1.69-8.57c0-3.1-0.56-5.94-1.69-8.53c-1.13-2.59-2.69-4.87-4.7-6.85
			c-2.01-1.97-4.37-3.5-7.09-4.56c-2.72-1.07-5.7-1.6-8.94-1.6c-3.19,0-6.14,0.53-8.86,1.6c-2.72,1.07-5.1,2.59-7.13,4.56
			c-2.03,1.98-3.61,4.26-4.74,6.85c-1.13,2.59-1.69,5.43-1.69,8.53c0,3.1,0.56,5.95,1.69,8.57c1.13,2.62,2.7,4.9,4.74,6.85
			c2.03,1.95,4.41,3.46,7.13,4.52C349.96,591.92,352.92,592.45,356.1,592.45z"/>
		<path class="st2" d="M405.12,598.94v-56.06h6.76l38.14,46.05h-3.54v-46.05h8.24v56.06h-6.76l-38.14-46.05h3.54v46.05H405.12z"/>
		<path class="st2" d="M477.78,598.94v-56.06h24.3c6.15,0,11.57,1.17,16.27,3.52c4.7,2.35,8.35,5.63,10.96,9.85
			c2.61,4.22,3.91,9.1,3.91,14.65c0,5.55-1.31,10.44-3.91,14.66c-2.61,4.22-6.26,7.5-10.96,9.85c-4.7,2.35-10.12,3.52-16.27,3.52
			H477.78z M486.02,591.97h15.57c4.78,0,8.91-0.88,12.4-2.64c3.49-1.76,6.19-4.23,8.11-7.41c1.92-3.17,2.88-6.85,2.88-11.01
			c0-4.22-0.96-7.9-2.88-11.05c-1.92-3.15-4.63-5.61-8.11-7.37c-3.49-1.76-7.62-2.64-12.4-2.64h-15.57V591.97z"/>
	</g>
</g>
</svg>
